<?xml version="1.0" encoding="UTF-8"?>
<svg xmlns="http://www.w3.org/2000/svg" xmlns:xlink="http://www.w3.org/1999/xlink" width="16px" height="16px" viewBox="0 0 16 16" version="1.1">
<defs>
<clipPath id="clip1">
  <path d="M 2.667969 3.332031 L 13.332031 3.332031 L 13.332031 12.667969 L 2.667969 12.667969 Z M 2.667969 3.332031 "/>
</clipPath>
<linearGradient id="linear0" gradientUnits="userSpaceOnUse" x1="110.768997" y1="125.582001" x2="368.309998" y2="419.914001" gradientTransform="matrix(0.03125,0,0,0.03125,0,0)">
<stop offset="0" style="stop-color:rgb(55.686275%,34.901961%,100%);stop-opacity:1;"/>
<stop offset="1" style="stop-color:rgb(40.784314%,53.333333%,97.647059%);stop-opacity:1;"/>
</linearGradient>
<filter id="alpha" filterUnits="objectBoundingBox" x="0%" y="0%" width="100%" height="100%">
  <feColorMatrix type="matrix" in="SourceGraphic" values="0 0 0 0 1 0 0 0 0 1 0 0 0 0 1 0 0 0 1 0"/>
</filter>
<mask id="mask0">
  <g filter="url(#alpha)">
<rect x="0" y="0" width="16" height="16" style="fill:rgb(0%,0%,0%);fill-opacity:0.8;stroke:none;"/>
  </g>
</mask>
<linearGradient id="linear1" gradientUnits="userSpaceOnUse" x1="110.764" y1="386.417999" x2="368.303986" y2="92.0811" gradientTransform="matrix(0.03125,0,0,0.03125,0,0)">
<stop offset="0" style="stop-color:rgb(55.686275%,34.901961%,100%);stop-opacity:1;"/>
<stop offset="1" style="stop-color:rgb(40.784314%,53.333333%,97.647059%);stop-opacity:1;"/>
</linearGradient>
<clipPath id="clip2">
  <rect x="0" y="0" width="16" height="16"/>
</clipPath>
<g id="surface5" clip-path="url(#clip2)">
<path style=" stroke:none;fill-rule:nonzero;fill:url(#linear1);" d="M 13.332031 5.347656 C 13.332031 5.878906 13.09375 6.390625 12.660156 6.769531 C 12.230469 7.144531 11.644531 7.359375 11.03125 7.359375 L 8.484375 7.359375 C 8.464844 7.566406 8.457031 7.78125 8.457031 8 C 8.457031 8.21875 8.445312 8.429688 8.433594 8.640625 L 11.03125 8.640625 C 11.640625 8.648438 12.214844 8.863281 12.640625 9.242188 C 13.066406 9.617188 13.304688 10.125 13.304688 10.652344 C 13.304688 11.179688 13.066406 11.6875 12.640625 12.066406 C 12.214844 12.441406 11.640625 12.65625 11.03125 12.667969 L 4.9375 12.667969 C 4.332031 12.65625 3.753906 12.441406 3.328125 12.066406 C 2.90625 11.6875 2.667969 11.179688 2.667969 10.652344 C 2.667969 10.125 2.90625 9.617188 3.328125 9.242188 C 3.753906 8.863281 4.332031 8.648438 4.9375 8.640625 L 7.332031 8.582031 C 7.5 8.582031 7.515625 8.21875 7.515625 8 C 7.515625 7.78125 7.523438 7.570312 7.539062 7.359375 L 4.9375 7.359375 C 4.332031 7.351562 3.753906 7.136719 3.328125 6.757812 C 2.90625 6.382812 2.667969 5.875 2.667969 5.347656 C 2.667969 4.820312 2.90625 4.3125 3.328125 3.933594 C 3.753906 3.558594 4.332031 3.34375 4.9375 3.332031 L 11.03125 3.332031 C 11.644531 3.335938 12.230469 3.546875 12.660156 3.925781 C 13.089844 4.300781 13.332031 4.8125 13.332031 5.347656 Z M 12.390625 10.652344 C 12.390625 10.339844 12.25 10.035156 11.992188 9.8125 C 11.738281 9.589844 11.394531 9.464844 11.03125 9.464844 L 8.332031 9.464844 C 8.234375 10.054688 8.046875 10.628906 7.777344 11.175781 C 7.660156 11.414062 7.507812 11.636719 7.324219 11.839844 L 11.03125 11.839844 C 11.394531 11.839844 11.738281 11.714844 11.992188 11.492188 C 12.246094 11.269531 12.390625 10.96875 12.390625 10.652344 Z M 4.9375 9.464844 C 4.578125 9.464844 4.230469 9.589844 3.972656 9.8125 C 3.71875 10.035156 3.574219 10.339844 3.574219 10.652344 C 3.574219 10.96875 3.71875 11.269531 3.972656 11.492188 C 4.230469 11.714844 4.578125 11.839844 4.9375 11.839844 L 5.550781 11.839844 C 6.089844 11.839844 6.601562 11.46875 6.917969 10.84375 C 7.136719 10.402344 7.292969 9.9375 7.382812 9.464844 Z M 3.578125 5.347656 C 3.578125 5.660156 3.722656 5.964844 3.976562 6.1875 C 4.230469 6.410156 4.578125 6.535156 4.9375 6.535156 L 7.636719 6.535156 C 7.734375 5.945312 7.921875 5.371094 8.191406 4.824219 C 8.3125 4.585938 8.464844 4.363281 8.648438 4.160156 L 4.9375 4.160156 C 4.578125 4.160156 4.230469 4.285156 3.976562 4.507812 C 3.722656 4.730469 3.582031 5.03125 3.578125 5.347656 Z M 9.054688 5.15625 C 8.835938 5.597656 8.683594 6.0625 8.59375 6.535156 L 11.03125 6.535156 C 11.394531 6.535156 11.742188 6.410156 11.996094 6.1875 C 12.25 5.964844 12.394531 5.660156 12.394531 5.347656 C 12.394531 5.03125 12.25 4.730469 11.996094 4.507812 C 11.742188 4.285156 11.394531 4.160156 11.03125 4.160156 L 10.421875 4.160156 C 9.882812 4.160156 9.371094 4.53125 9.054688 5.15625 Z M 9.054688 5.15625 "/>
</g>
</defs>
<g id="surface1">
<path style=" stroke:none;fill-rule:nonzero;fill:rgb(94.901961%,95.294118%,100%);fill-opacity:1;" d="M 8 0 C 12.417969 0 16 3.582031 16 8 C 16 12.417969 12.417969 16 8 16 C 3.582031 16 0 12.417969 0 8 C 0 3.582031 3.582031 0 8 0 Z M 8 0 "/>
<g clip-path="url(#clip1)" clip-rule="nonzero">
<path style=" stroke:none;fill-rule:nonzero;fill:url(#linear0);" d="M 13.332031 10.652344 C 13.332031 10.121094 13.09375 9.609375 12.660156 9.230469 C 12.230469 8.855469 11.644531 8.640625 11.03125 8.640625 L 8.484375 8.640625 C 8.464844 8.433594 8.457031 8.21875 8.457031 8 C 8.457031 7.78125 8.445312 7.570312 8.433594 7.359375 L 11.03125 7.359375 C 11.640625 7.351562 12.214844 7.136719 12.640625 6.757812 C 13.066406 6.382812 13.304688 5.875 13.304688 5.347656 C 13.304688 4.820312 13.066406 4.3125 12.640625 3.933594 C 12.214844 3.558594 11.640625 3.34375 11.03125 3.332031 L 4.9375 3.332031 C 4.332031 3.34375 3.753906 3.558594 3.328125 3.933594 C 2.90625 4.3125 2.667969 4.820312 2.667969 5.347656 C 2.667969 5.875 2.90625 6.382812 3.328125 6.757812 C 3.753906 7.136719 4.332031 7.351562 4.9375 7.359375 L 7.332031 7.417969 C 7.5 7.417969 7.515625 7.78125 7.515625 8 C 7.515625 8.21875 7.523438 8.429688 7.539062 8.640625 L 4.9375 8.640625 C 4.332031 8.648438 3.753906 8.863281 3.328125 9.242188 C 2.90625 9.617188 2.667969 10.125 2.667969 10.652344 C 2.667969 11.179688 2.90625 11.6875 3.328125 12.066406 C 3.753906 12.441406 4.332031 12.65625 4.9375 12.667969 L 11.03125 12.667969 C 11.644531 12.664062 12.230469 12.453125 12.660156 12.074219 C 13.089844 11.699219 13.332031 11.1875 13.332031 10.652344 Z M 12.390625 5.347656 C 12.390625 5.660156 12.25 5.964844 11.992188 6.1875 C 11.738281 6.410156 11.394531 6.535156 11.03125 6.535156 L 8.332031 6.535156 C 8.234375 5.945312 8.046875 5.371094 7.777344 4.824219 C 7.660156 4.585938 7.507812 4.363281 7.324219 4.160156 L 11.03125 4.160156 C 11.394531 4.160156 11.738281 4.285156 11.992188 4.507812 C 12.246094 4.730469 12.390625 5.03125 12.390625 5.347656 Z M 4.9375 6.535156 C 4.578125 6.535156 4.230469 6.410156 3.976562 6.1875 C 3.71875 5.964844 3.574219 5.660156 3.574219 5.347656 C 3.574219 5.03125 3.71875 4.730469 3.976562 4.507812 C 4.230469 4.285156 4.578125 4.160156 4.9375 4.160156 L 5.550781 4.160156 C 6.089844 4.160156 6.601562 4.53125 6.917969 5.15625 C 7.136719 5.597656 7.292969 6.0625 7.382812 6.535156 Z M 3.578125 10.652344 C 3.578125 10.339844 3.722656 10.035156 3.976562 9.8125 C 4.230469 9.589844 4.578125 9.464844 4.9375 9.464844 L 7.636719 9.464844 C 7.734375 10.054688 7.921875 10.628906 8.191406 11.175781 C 8.3125 11.414062 8.464844 11.636719 8.648438 11.839844 L 4.9375 11.839844 C 4.578125 11.839844 4.234375 11.714844 3.976562 11.492188 C 3.722656 11.269531 3.582031 10.96875 3.578125 10.652344 Z M 9.054688 10.84375 C 8.835938 10.402344 8.683594 9.9375 8.59375 9.464844 L 11.03125 9.464844 C 11.394531 9.464844 11.742188 9.589844 11.996094 9.8125 C 12.25 10.035156 12.394531 10.339844 12.394531 10.652344 C 12.394531 10.96875 12.25 11.269531 11.996094 11.492188 C 11.742188 11.714844 11.394531 11.839844 11.03125 11.839844 L 10.421875 11.839844 C 9.882812 11.839844 9.371094 11.46875 9.054688 10.84375 Z M 9.054688 10.84375 "/>
<use xlink:href="#surface5" mask="url(#mask0)"/>
</g>
</g>
</svg>
